<svg width="179" height="272" viewBox="0 0 179 272" fill="none" xmlns="http://www.w3.org/2000/svg">
<g opacity="0.12">
<path d="M89.3992 130.796C91.2789 130.796 92.8027 129.326 92.8027 127.513C92.8027 125.7 91.2789 124.23 89.3992 124.23C87.5194 124.23 85.9956 125.7 85.9956 127.513C85.9956 129.326 87.5194 130.796 89.3992 130.796Z" fill="white"/>
<path d="M89.3992 178.942C91.2789 178.942 92.8027 177.472 92.8027 175.659C92.8027 173.846 91.2789 172.376 89.3992 172.376C87.5194 172.376 85.9956 173.846 85.9956 175.659C85.9956 177.472 87.5194 178.942 89.3992 178.942Z" fill="white"/>
<path d="M46.5149 154.869C48.3946 154.869 49.9184 153.399 49.9184 151.586C49.9184 149.773 48.3946 148.303 46.5149 148.303C44.6352 148.303 43.1113 149.773 43.1113 151.586C43.1113 153.399 44.6352 154.869 46.5149 154.869Z" fill="white"/>
<path d="M46.2877 201.047C48.2927 201.047 49.9181 199.479 49.9181 197.545C49.9181 195.611 48.2927 194.043 46.2877 194.043C44.2826 194.043 42.6572 195.611 42.6572 197.545C42.6572 199.479 44.2826 201.047 46.2877 201.047Z" fill="white"/>
<path d="M46.2877 109.129C48.2927 109.129 49.9181 107.561 49.9181 105.627C49.9181 103.693 48.2927 102.125 46.2877 102.125C44.2826 102.125 42.6572 103.693 42.6572 105.627C42.6572 107.561 44.2826 109.129 46.2877 109.129Z" fill="white"/>
<path d="M3.40356 178.942C5.28329 178.942 6.80711 177.472 6.80711 175.659C6.80711 173.846 5.28329 172.376 3.40356 172.376C1.52382 172.376 0 173.846 0 175.659C0 177.472 1.52382 178.942 3.40356 178.942Z" fill="white"/>
<path d="M56.9517 191.417C57.4055 192.074 57.6324 192.731 57.8593 193.387L77.1461 182.663C76.6923 182.007 76.2385 181.35 76.0116 180.693L56.9517 191.417Z" fill="white"/>
<path d="M45.1538 163.624V185.728C45.6076 185.728 45.8345 185.728 46.2883 185.728C46.7421 185.728 46.969 185.728 47.4228 185.728V163.842C47.1959 163.842 46.969 163.842 46.5152 163.842C46.0614 163.624 45.6076 163.624 45.1538 163.624Z" fill="white"/>
<path d="M14.0664 182.007L34.4877 193.387C34.7146 192.731 35.1685 192.074 35.3954 191.418L14.974 180.037C14.7471 180.694 14.5202 181.35 14.0664 182.007Z" fill="white"/>
<path d="M34.7143 155.305L12.7046 167.561C13.1584 167.999 13.6122 168.655 14.066 169.312L35.6219 157.275C35.1681 156.618 34.9412 155.962 34.7143 155.305Z" fill="white"/>
<path d="M58.3119 155.305L80.3216 167.561C79.8678 167.999 79.414 168.655 78.9602 169.312L57.4043 157.275C57.8581 156.618 58.085 155.962 58.3119 155.305Z" fill="white"/>
<path d="M3.40356 130.796C5.28329 130.796 6.80711 129.326 6.80711 127.513C6.80711 125.7 5.28329 124.23 3.40356 124.23C1.52382 124.23 0 125.7 0 127.513C0 129.326 1.52382 130.796 3.40356 130.796Z" fill="white"/>
<path d="M13.8394 134.076L35.3952 146.113C35.849 145.456 36.0759 144.8 36.5297 144.362L14.747 132.325C14.5201 132.981 14.2932 133.638 13.8394 134.076Z" fill="white"/>
<path d="M3.4039 139.549C2.9501 139.549 2.49629 139.549 2.04248 139.549V163.842C2.49629 163.842 2.9501 163.842 3.4039 163.842C3.63081 163.842 4.08461 163.842 4.31152 163.842V139.768C4.08461 139.549 3.63081 139.549 3.4039 139.549Z" fill="white"/>
<path d="M46.2883 117.663C45.8345 117.663 45.6076 117.663 45.1538 117.663V139.768C45.6076 139.768 46.0614 139.768 46.5152 139.768C46.7421 139.768 47.1959 139.768 47.4228 139.768V117.882C46.969 117.663 46.5152 117.663 46.2883 117.663Z" fill="white"/>
<path d="M34.0337 108.032L12.9316 119.851C13.3854 120.507 13.8393 120.945 14.2931 121.601L34.7144 110.221C34.4875 109.564 34.2606 108.908 34.0337 108.032Z" fill="white"/>
<path d="M75.7875 132.325L55.593 143.486C56.0468 143.924 56.5006 144.581 56.9544 145.237L76.922 134.076C76.4682 133.638 76.2413 132.981 75.7875 132.325Z" fill="white"/>
<path d="M78.5066 119.194L58.5391 108.032C58.3122 108.689 58.0853 109.564 57.8584 110.221L77.1452 120.945C77.3721 120.288 77.8259 119.632 78.5066 119.194Z" fill="white"/>
<path d="M88.2651 139.549V163.623C88.9458 163.623 89.8535 163.842 90.5342 164.061V139.111C89.8535 139.33 89.1728 139.549 88.2651 139.549Z" fill="white"/>
<path d="M89.3992 82.6463C91.2789 82.6463 92.8027 81.1765 92.8027 79.3634C92.8027 77.5504 91.2789 76.0806 89.3992 76.0806C87.5194 76.0806 85.9956 77.5504 85.9956 79.3634C85.9956 81.1765 87.5194 82.6463 89.3992 82.6463Z" fill="white"/>
<path d="M89.399 36.9043C91.4041 36.9043 93.0295 35.3365 93.0295 33.4026C93.0295 31.4687 91.4041 29.9009 89.399 29.9009C87.394 29.9009 85.7686 31.4687 85.7686 33.4026C85.7686 35.3365 87.394 36.9043 89.399 36.9043Z" fill="white"/>
<path d="M132.51 58.7901C134.515 58.7901 136.141 57.2223 136.141 55.2883C136.141 53.3544 134.515 51.7866 132.51 51.7866C130.505 51.7866 128.88 53.3544 128.88 55.2883C128.88 57.2223 130.505 58.7901 132.51 58.7901Z" fill="white"/>
<path d="M132.51 12.7906C134.515 12.7906 136.141 11.2228 136.141 9.28883C136.141 7.35488 134.515 5.78711 132.51 5.78711C130.505 5.78711 128.88 7.35488 128.88 9.28883C128.88 11.2228 130.505 12.7906 132.51 12.7906Z" fill="white"/>
<path d="M100.065 119.193C100.519 119.849 100.746 120.506 100.973 121.162L120.26 110.438C119.806 109.782 119.352 109.125 119.125 108.469L100.065 119.193Z" fill="white"/>
<path d="M88.2651 91.3989V113.504C88.7189 113.504 88.9458 113.504 89.3997 113.504C89.8535 113.504 90.0804 113.504 90.5342 113.504V91.6178C90.3073 91.6178 90.0804 91.6178 89.6266 91.6178C89.1727 91.3989 88.7189 91.3989 88.2651 91.3989Z" fill="white"/>
<path d="M77.8307 83.0811L55.821 95.3371C56.2749 95.7748 56.7287 96.4314 57.1825 97.0879L78.7383 85.0508C78.2845 84.3942 78.0576 83.7376 77.8307 83.0811Z" fill="white"/>
<path d="M101.425 83.0811L123.434 95.3371C122.981 95.7748 122.527 96.4314 122.073 97.0879L100.517 85.0508C100.971 84.3942 101.198 83.7376 101.425 83.0811Z" fill="white"/>
<path d="M46.5149 58.5711C48.3946 58.5711 49.9184 57.1013 49.9184 55.2882C49.9184 53.4752 48.3946 52.0054 46.5149 52.0054C44.6352 52.0054 43.1113 53.4752 43.1113 55.2882C43.1113 57.1013 44.6352 58.5711 46.5149 58.5711Z" fill="white"/>
<path d="M56.9517 61.8558L78.5075 73.893C78.9613 73.2364 79.1882 72.5799 79.642 72.1421L57.8593 60.105C57.6324 60.7616 57.4055 61.4181 56.9517 61.8558Z" fill="white"/>
<path d="M46.5152 67.3242C46.0614 67.3242 45.6076 67.3242 45.1538 67.3242V91.6174C45.6076 91.6174 46.0614 91.6174 46.5152 91.6174C46.7421 91.6174 47.1959 91.6174 47.4228 91.6174V67.5431C47.1959 67.3242 46.7421 67.3242 46.5152 67.3242Z" fill="white"/>
<path d="M89.3997 45.4385C88.9458 45.4385 88.7189 45.4385 88.2651 45.4385V67.5431C88.7189 67.5431 89.1727 67.5431 89.6266 67.5431C89.8535 67.5431 90.3073 67.5431 90.5342 67.5431V45.6573C90.3073 45.4385 89.8535 45.4385 89.3997 45.4385Z" fill="white"/>
<path d="M89.3997 1.9292C88.9458 1.9292 88.7189 1.9292 88.2651 1.9292V24.0338C88.7189 24.0338 89.1727 24.0338 89.6266 24.0338C89.8535 24.0338 90.3073 24.0338 90.5342 24.0338V2.14806C90.3073 1.9292 89.8535 1.9292 89.3997 1.9292Z" fill="white"/>
<path d="M77.1501 35.8115L56.0481 47.6298C56.5019 48.2864 56.9557 48.7241 57.4095 49.3807L77.8309 38.0001C77.6039 37.3435 77.377 36.687 77.1501 35.8115Z" fill="white"/>
<path d="M175.17 82.6463C177.049 82.6463 178.573 81.1765 178.573 79.3634C178.573 77.5504 177.049 76.0806 175.17 76.0806C173.29 76.0806 171.766 77.5504 171.766 79.3634C171.766 81.1765 173.29 82.6463 175.17 82.6463Z" fill="white"/>
<path d="M175.17 36.9043C177.175 36.9043 178.8 35.3365 178.8 33.4026C178.8 31.4687 177.175 29.9009 175.17 29.9009C173.164 29.9009 171.539 31.4687 171.539 33.4026C171.539 35.3365 173.164 36.9043 175.17 36.9043Z" fill="white"/>
<path d="M174.036 91.3989V113.504C174.489 113.504 174.716 113.504 175.17 113.504C175.624 113.504 175.851 113.504 176.305 113.504V91.6178C176.078 91.6178 175.851 91.6178 175.397 91.6178C175.17 91.3989 174.489 91.3989 174.036 91.3989Z" fill="white"/>
<path d="M164.053 83.0811L142.043 95.3371C142.497 95.7748 142.951 96.4314 143.405 97.0879L164.96 85.0508C164.507 84.3942 164.28 83.7376 164.053 83.0811Z" fill="white"/>
<path d="M143.177 61.8558L164.732 73.893C165.186 73.2364 165.413 72.5799 165.867 72.1421L144.084 60.105C143.857 60.7616 143.63 61.4181 143.177 61.8558Z" fill="white"/>
<path d="M132.738 67.3242C132.284 67.3242 131.83 67.3242 131.376 67.3242V91.6174C131.83 91.6174 132.284 91.6174 132.738 91.6174C132.965 91.6174 133.419 91.6174 133.646 91.6174V67.5431C133.419 67.3242 132.965 67.3242 132.738 67.3242Z" fill="white"/>
<path d="M175.17 45.4385C174.716 45.4385 174.489 45.4385 174.036 45.4385V67.5431C174.489 67.5431 174.943 67.5431 175.397 67.5431C175.624 67.5431 176.078 67.5431 176.305 67.5431V45.6573C176.078 45.4385 175.624 45.4385 175.17 45.4385Z" fill="white"/>
<path d="M174.036 0.732422V22.837C174.489 22.837 174.716 22.837 175.17 22.837C175.624 22.837 175.851 22.837 176.305 22.837V0.95128C176.078 0.95128 175.851 0.95128 175.397 0.95128C175.17 0.732423 174.489 0.732422 174.036 0.732422Z" fill="white"/>
<path d="M163.372 35.8115L142.27 47.6298C142.724 48.2864 143.178 48.7241 143.632 49.3807L164.053 38.0001C163.826 37.3435 163.599 36.687 163.372 35.8115Z" fill="white"/>
<path d="M143.177 16.5223L164.732 28.5595C165.186 27.9029 165.413 27.2464 165.867 26.8086L144.084 14.7715C143.857 15.4281 143.63 16.0846 143.177 16.5223Z" fill="white"/>
<path d="M118.899 60.105L98.7043 71.2667C99.1582 71.7044 99.612 72.361 100.066 73.0176L120.033 61.8558C119.579 61.4181 119.353 60.7616 118.899 60.105Z" fill="white"/>
<path d="M118.899 12.8423L98.7043 24.004C99.1582 24.4417 99.612 25.0983 100.066 25.7549L120.033 14.5931C119.579 14.1554 119.353 13.4989 118.899 12.8423Z" fill="white"/>
<path d="M121.62 46.9733L101.652 35.8115C101.425 36.4681 101.199 37.3435 100.972 38.0001L120.259 48.7241C120.485 48.0675 120.939 47.411 121.62 46.9733Z" fill="white"/>
<path d="M89.399 271.083C91.4041 271.083 93.0295 269.515 93.0295 267.581C93.0295 265.647 91.4041 264.079 89.399 264.079C87.394 264.079 85.7686 265.647 85.7686 267.581C85.7686 269.515 87.394 271.083 89.399 271.083Z" fill="white"/>
<path d="M46.5149 248.978C48.3946 248.978 49.9184 247.508 49.9184 245.695C49.9184 243.882 48.3946 242.412 46.5149 242.412C44.6352 242.412 43.1113 243.882 43.1113 245.695C43.1113 247.508 44.6352 248.978 46.5149 248.978Z" fill="white"/>
<path d="M56.9517 239.128L78.5075 227.091C78.9613 227.748 79.1882 228.404 79.642 228.842L57.8593 240.879C57.6324 240.442 57.4055 239.785 56.9517 239.128Z" fill="white"/>
<path d="M46.5152 233.657C46.0614 233.657 45.6076 233.657 45.1538 233.657V209.583C45.6076 209.583 46.0614 209.583 46.5152 209.583C46.7421 209.583 47.1959 209.583 47.4228 209.583V233.657C47.1959 233.657 46.7421 233.657 46.5152 233.657Z" fill="white"/>
<path d="M89.3997 255.543C88.9458 255.543 88.7189 255.543 88.2651 255.543V233.658C88.7189 233.658 89.1727 233.658 89.6266 233.658C89.8535 233.658 90.3073 233.658 90.5342 233.658V255.543C90.3073 255.543 89.8535 255.543 89.3997 255.543Z" fill="white"/>
<path d="M77.1501 265.172L56.0481 253.354C56.5019 252.697 56.9557 252.26 57.4095 251.603L77.8309 262.984C77.6039 263.859 77.377 264.516 77.1501 265.172Z" fill="white"/>
<path d="M121.62 254.23L101.652 265.392C101.425 264.735 101.199 263.86 100.972 263.203L120.259 252.479C120.485 252.917 120.939 253.573 121.62 254.23Z" fill="white"/>
<path d="M121.62 239.567L101.652 228.405C101.425 229.062 101.199 229.937 100.972 230.594L120.259 241.318C120.485 240.661 120.939 240.005 121.62 239.567Z" fill="white"/>
<path d="M89.399 225.122C91.4041 225.122 93.0295 223.554 93.0295 221.62C93.0295 219.686 91.4041 218.118 89.399 218.118C87.394 218.118 85.7686 219.686 85.7686 221.62C85.7686 223.554 87.394 225.122 89.399 225.122Z" fill="white"/>
<path d="M89.3997 209.584C88.9458 209.584 88.7189 209.584 88.2651 209.584V187.698C88.7189 187.698 89.1727 187.698 89.6266 187.698C89.8535 187.698 90.3073 187.698 90.5342 187.698V209.584C90.3073 209.584 89.8535 209.584 89.3997 209.584Z" fill="white"/>
<path d="M77.1501 219.212L56.0481 207.394C56.5019 206.737 56.9557 206.3 57.4095 205.643L77.8309 217.024C77.6039 217.899 77.377 218.556 77.1501 219.212Z" fill="white"/>
<path d="M121.62 208.271L101.652 219.433C101.425 218.776 101.199 217.901 100.972 217.244L120.259 206.52C120.485 206.958 120.939 207.614 121.62 208.271Z" fill="white"/>
<path d="M131.376 67.3239V91.3983C132.057 91.3983 132.965 91.6171 133.646 91.836V66.8862C132.965 67.1051 132.057 67.3239 131.376 67.3239Z" fill="white"/>
<path d="M131.376 18.4309V42.5052C132.057 42.5052 132.965 42.7241 133.646 42.9429V17.9932C132.965 18.212 132.057 18.4309 131.376 18.4309Z" fill="white"/>
<path d="M132.51 249.196C134.515 249.196 136.141 247.629 136.141 245.695C136.141 243.761 134.515 242.193 132.51 242.193C130.505 242.193 128.88 243.761 128.88 245.695C128.88 247.629 130.505 249.196 132.51 249.196Z" fill="white"/>
<path d="M175.17 224.903C177.049 224.903 178.573 223.433 178.573 221.62C178.573 219.807 177.049 218.337 175.17 218.337C173.29 218.337 171.766 219.807 171.766 221.62C171.766 223.433 173.29 224.903 175.17 224.903Z" fill="white"/>
<path d="M175.17 271.083C177.175 271.083 178.8 269.515 178.8 267.581C178.8 265.647 177.175 264.079 175.17 264.079C173.164 264.079 171.539 265.647 171.539 267.581C171.539 269.515 173.164 271.083 175.17 271.083Z" fill="white"/>
<path d="M174.036 209.802V187.698C174.489 187.698 174.716 187.698 175.17 187.698C175.624 187.698 175.851 187.698 176.305 187.698V209.583C176.078 209.583 175.851 209.583 175.397 209.583C175.17 209.583 174.489 209.583 174.036 209.802Z" fill="white"/>
<path d="M164.053 218.119L142.043 205.863C142.497 205.425 142.951 204.768 143.405 204.112L164.96 216.149C164.507 216.587 164.28 217.243 164.053 218.119Z" fill="white"/>
<path d="M143.177 239.128L164.732 227.091C165.186 227.748 165.413 228.404 165.867 228.842L144.084 240.879C143.857 240.442 143.63 239.785 143.177 239.128Z" fill="white"/>
<path d="M132.738 233.657C132.284 233.657 131.83 233.657 131.376 233.657V209.583C131.83 209.583 132.284 209.583 132.738 209.583C132.965 209.583 133.419 209.583 133.646 209.583V233.657C133.419 233.657 132.965 233.657 132.738 233.657Z" fill="white"/>
<path d="M175.17 255.543C174.716 255.543 174.489 255.543 174.036 255.543V233.658C174.489 233.658 174.943 233.658 175.397 233.658C175.624 233.658 176.078 233.658 176.305 233.658V255.543C176.078 255.543 175.624 255.543 175.17 255.543Z" fill="white"/>
<path d="M163.372 265.172L142.27 253.354C142.724 252.697 143.178 252.26 143.632 251.603L164.053 262.984C163.826 263.859 163.599 264.516 163.372 265.172Z" fill="white"/>
<path d="M131.376 233.657V209.582C132.057 209.582 132.965 209.363 133.646 209.145V234.094C132.965 233.875 132.057 233.875 131.376 233.657Z" fill="white"/>
<path d="M132.738 154.869C134.617 154.869 136.141 153.399 136.141 151.586C136.141 149.773 134.617 148.303 132.738 148.303C130.858 148.303 129.334 149.773 129.334 151.586C129.334 153.399 130.858 154.869 132.738 154.869Z" fill="white"/>
<path d="M132.51 201.047C134.515 201.047 136.141 199.479 136.141 197.545C136.141 195.611 134.515 194.043 132.51 194.043C130.505 194.043 128.88 195.611 128.88 197.545C128.88 199.479 130.505 201.047 132.51 201.047Z" fill="white"/>
<path d="M132.51 109.129C134.515 109.129 136.141 107.561 136.141 105.627C136.141 103.693 134.515 102.125 132.51 102.125C130.505 102.125 128.88 103.693 128.88 105.627C128.88 107.561 130.505 109.129 132.51 109.129Z" fill="white"/>
<path d="M175.17 130.796C177.049 130.796 178.573 129.326 178.573 127.513C178.573 125.7 177.049 124.23 175.17 124.23C173.29 124.23 171.766 125.7 171.766 127.513C171.766 129.326 173.29 130.796 175.17 130.796Z" fill="white"/>
<path d="M175.17 178.942C177.049 178.942 178.573 177.472 178.573 175.659C178.573 173.846 177.049 172.376 175.17 172.376C173.29 172.376 171.766 173.846 171.766 175.659C171.766 177.472 173.29 178.942 175.17 178.942Z" fill="white"/>
<path d="M143.177 191.417C143.63 192.074 143.857 192.731 144.084 193.387L163.371 182.663C162.917 182.007 162.463 181.35 162.236 180.693L143.177 191.417Z" fill="white"/>
<path d="M131.376 163.624V185.728C131.83 185.728 132.057 185.728 132.511 185.728C132.965 185.728 133.192 185.728 133.646 185.728V163.842C133.419 163.842 133.192 163.842 132.738 163.842C132.284 163.624 131.83 163.624 131.376 163.624Z" fill="white"/>
<path d="M100.293 182.007L120.715 193.387C120.941 192.731 121.395 192.074 121.622 191.418L101.201 180.037C100.974 180.694 100.747 181.35 100.293 182.007Z" fill="white"/>
<path d="M120.942 155.305L98.9324 167.561C99.3862 167.999 99.84 168.655 100.294 169.312L121.85 157.275C121.396 156.618 121.169 155.962 120.942 155.305Z" fill="white"/>
<path d="M144.538 155.305L166.547 167.561C166.094 167.999 165.64 168.655 165.186 169.312L143.63 157.275C144.084 156.618 144.311 155.962 144.538 155.305Z" fill="white"/>
<path d="M100.065 134.076L121.621 146.113C122.075 145.456 122.302 144.8 122.756 144.362L100.973 132.325C100.746 132.981 100.519 133.638 100.065 134.076Z" fill="white"/>
<path d="M89.6266 139.549C89.1727 139.549 88.7189 139.549 88.2651 139.549V163.842C88.7189 163.842 89.1727 163.842 89.6266 163.842C89.8535 163.842 90.3073 163.842 90.5342 163.842V139.768C90.3073 139.549 90.0804 139.549 89.6266 139.549Z" fill="white"/>
<path d="M132.511 117.663C132.057 117.663 131.83 117.663 131.376 117.663V139.768C131.83 139.768 132.284 139.768 132.738 139.768C132.965 139.768 133.419 139.768 133.646 139.768V117.882C133.192 117.663 132.738 117.663 132.511 117.663Z" fill="white"/>
<path d="M162.011 132.325L141.816 143.486C142.27 143.924 142.724 144.581 143.178 145.237L163.145 134.076C162.691 133.638 162.464 132.981 162.011 132.325Z" fill="white"/>
<path d="M164.732 119.194L144.765 108.032C144.538 108.689 144.311 109.564 144.084 110.221L163.371 120.945C163.598 120.288 164.052 119.632 164.732 119.194Z" fill="white"/>
<path d="M174.036 139.549V163.623C174.716 163.623 175.624 163.842 176.305 164.061V139.111C175.624 139.33 174.943 139.549 174.036 139.549Z" fill="white"/>
</g>
</svg>
